<?xml version="1.0" encoding="UTF-8" standalone="no"?>
<!DOCTYPE svg PUBLIC "-//W3C//DTD SVG 1.1//EN"
 "http://www.w3.org/Graphics/SVG/1.1/DTD/svg11.dtd">
<!-- Generated by graphviz version 3.0.0 (20220226.1711)
 -->
<!-- Pages: 1 -->
<svg width="677pt" height="476pt"
 viewBox="0.00 0.00 677.25 476.00" xmlns="http://www.w3.org/2000/svg" xmlns:xlink="http://www.w3.org/1999/xlink">
<g id="graph0" class="graph" transform="scale(1 1) rotate(0) translate(4 472)">
<polygon fill="white" stroke="transparent" points="-4,4 -4,-472 673.25,-472 673.25,4 -4,4"/>
<!-- [root] aws_instance.my_server (expand) -->
<g id="node1" class="node">
<title>[root] aws_instance.my_server (expand)</title>
<polygon fill="none" stroke="black" points="401.77,-252 251.77,-252 251.77,-216 401.77,-216 401.77,-252"/>
<text text-anchor="middle" x="326.77" y="-230.3" font-family="Times,serif" font-size="14.00">aws_instance.my_server</text>
</g>
<!-- [root] aws_key_pair.deployer (expand) -->
<g id="node3" class="node">
<title>[root] aws_key_pair.deployer (expand)</title>
<polygon fill="none" stroke="black" points="239.77,-108 97.77,-108 97.77,-72 239.77,-72 239.77,-108"/>
<text text-anchor="middle" x="168.77" y="-86.3" font-family="Times,serif" font-size="14.00">aws_key_pair.deployer</text>
</g>
<!-- [root] aws_instance.my_server (expand)&#45;&gt;[root] aws_key_pair.deployer (expand) -->
<g id="edge1" class="edge">
<title>[root] aws_instance.my_server (expand)&#45;&gt;[root] aws_key_pair.deployer (expand)</title>
<path fill="none" stroke="black" d="M273.08,-215.93C252.99,-207.54 231.09,-195.76 214.77,-180 196.87,-162.72 184.61,-136.96 177.28,-117.59"/>
<polygon fill="black" stroke="black" points="180.55,-116.36 173.89,-108.12 173.96,-118.72 180.55,-116.36"/>
</g>
<!-- [root] aws_security_group.sg_my_server (expand) -->
<g id="node4" class="node">
<title>[root] aws_security_group.sg_my_server (expand)</title>
<polygon fill="none" stroke="black" points="429.77,-180 223.77,-180 223.77,-144 429.77,-144 429.77,-180"/>
<text text-anchor="middle" x="326.77" y="-158.3" font-family="Times,serif" font-size="14.00">aws_security_group.sg_my_server</text>
</g>
<!-- [root] aws_instance.my_server (expand)&#45;&gt;[root] aws_security_group.sg_my_server (expand) -->
<g id="edge2" class="edge">
<title>[root] aws_instance.my_server (expand)&#45;&gt;[root] aws_security_group.sg_my_server (expand)</title>
<path fill="none" stroke="black" d="M326.77,-215.7C326.77,-207.98 326.77,-198.71 326.77,-190.11"/>
<polygon fill="black" stroke="black" points="330.27,-190.1 326.77,-180.1 323.27,-190.1 330.27,-190.1"/>
</g>
<!-- [root] var.instance_type -->
<g id="node8" class="node">
<title>[root] var.instance_type</title>
<polygon fill="none" stroke="black" points="553.27,-180 448.27,-180 448.27,-144 559.27,-144 559.27,-174 553.27,-180"/>
<polyline fill="none" stroke="black" points="553.27,-180 553.27,-174 "/>
<polyline fill="none" stroke="black" points="559.27,-174 553.27,-174 "/>
<text text-anchor="middle" x="503.77" y="-158.3" font-family="Times,serif" font-size="14.00">var.instance_type</text>
</g>
<!-- [root] aws_instance.my_server (expand)&#45;&gt;[root] var.instance_type -->
<g id="edge3" class="edge">
<title>[root] aws_instance.my_server (expand)&#45;&gt;[root] var.instance_type</title>
<path fill="none" stroke="black" d="M370.07,-215.88C394.48,-206.22 425.16,-194.09 450.98,-183.88"/>
<polygon fill="black" stroke="black" points="452.6,-187 460.61,-180.07 450.02,-180.49 452.6,-187"/>
</g>
<!-- [root] aws_instance.my_server_2 (expand) -->
<g id="node2" class="node">
<title>[root] aws_instance.my_server_2 (expand)</title>
<polygon fill="none" stroke="black" points="497.77,-324 333.77,-324 333.77,-288 497.77,-288 497.77,-324"/>
<text text-anchor="middle" x="415.77" y="-302.3" font-family="Times,serif" font-size="14.00">aws_instance.my_server_2</text>
</g>
<!-- [root] aws_instance.my_server_2 (expand)&#45;&gt;[root] aws_instance.my_server (expand) -->
<g id="edge4" class="edge">
<title>[root] aws_instance.my_server_2 (expand)&#45;&gt;[root] aws_instance.my_server (expand)</title>
<path fill="none" stroke="black" d="M393.77,-287.7C382.56,-278.88 368.77,-268.03 356.61,-258.47"/>
<polygon fill="black" stroke="black" points="358.54,-255.54 348.52,-252.1 354.21,-261.04 358.54,-255.54"/>
</g>
<!-- [root] provider[&quot;registry.terraform.io/hashicorp/aws&quot;] -->
<g id="node7" class="node">
<title>[root] provider[&quot;registry.terraform.io/hashicorp/aws&quot;]</title>
<polygon fill="none" stroke="black" points="252.77,-36 0.23,-18 252.77,0 505.3,-18 252.77,-36"/>
<text text-anchor="middle" x="252.77" y="-14.3" font-family="Times,serif" font-size="14.00">provider[&quot;registry.terraform.io/hashicorp/aws&quot;]</text>
</g>
<!-- [root] aws_key_pair.deployer (expand)&#45;&gt;[root] provider[&quot;registry.terraform.io/hashicorp/aws&quot;] -->
<g id="edge5" class="edge">
<title>[root] aws_key_pair.deployer (expand)&#45;&gt;[root] provider[&quot;registry.terraform.io/hashicorp/aws&quot;]</title>
<path fill="none" stroke="black" d="M189.53,-71.7C200.59,-62.49 214.3,-51.06 226.13,-41.2"/>
<polygon fill="black" stroke="black" points="228.52,-43.76 233.96,-34.67 224.04,-38.38 228.52,-43.76"/>
</g>
<!-- [root] data.aws_vpc.default_vpc (expand) -->
<g id="node5" class="node">
<title>[root] data.aws_vpc.default_vpc (expand)</title>
<polygon fill="none" stroke="black" points="415.77,-108 257.77,-108 257.77,-72 415.77,-72 415.77,-108"/>
<text text-anchor="middle" x="336.77" y="-86.3" font-family="Times,serif" font-size="14.00">data.aws_vpc.default_vpc</text>
</g>
<!-- [root] aws_security_group.sg_my_server (expand)&#45;&gt;[root] data.aws_vpc.default_vpc (expand) -->
<g id="edge6" class="edge">
<title>[root] aws_security_group.sg_my_server (expand)&#45;&gt;[root] data.aws_vpc.default_vpc (expand)</title>
<path fill="none" stroke="black" d="M329.24,-143.7C330.34,-135.98 331.67,-126.71 332.9,-118.11"/>
<polygon fill="black" stroke="black" points="336.38,-118.5 334.32,-108.1 329.45,-117.51 336.38,-118.5"/>
</g>
<!-- [root] data.aws_vpc.default_vpc (expand)&#45;&gt;[root] provider[&quot;registry.terraform.io/hashicorp/aws&quot;] -->
<g id="edge7" class="edge">
<title>[root] data.aws_vpc.default_vpc (expand)&#45;&gt;[root] provider[&quot;registry.terraform.io/hashicorp/aws&quot;]</title>
<path fill="none" stroke="black" d="M316,-71.7C304.95,-62.49 291.24,-51.06 279.41,-41.2"/>
<polygon fill="black" stroke="black" points="281.5,-38.38 271.57,-34.67 277.02,-43.76 281.5,-38.38"/>
</g>
<!-- [root] output.public_ip -->
<g id="node6" class="node">
<title>[root] output.public_ip</title>
<polygon fill="none" stroke="black" points="284.77,-324 184.77,-324 184.77,-288 290.77,-288 290.77,-318 284.77,-324"/>
<polyline fill="none" stroke="black" points="284.77,-324 284.77,-318 "/>
<polyline fill="none" stroke="black" points="290.77,-318 284.77,-318 "/>
<text text-anchor="middle" x="237.77" y="-302.3" font-family="Times,serif" font-size="14.00">output.public_ip</text>
</g>
<!-- [root] output.public_ip&#45;&gt;[root] aws_instance.my_server (expand) -->
<g id="edge8" class="edge">
<title>[root] output.public_ip&#45;&gt;[root] aws_instance.my_server (expand)</title>
<path fill="none" stroke="black" d="M259.77,-287.7C270.98,-278.88 284.77,-268.03 296.92,-258.47"/>
<polygon fill="black" stroke="black" points="299.32,-261.04 305.02,-252.1 295,-255.54 299.32,-261.04"/>
</g>
<!-- [root] provider[&quot;registry.terraform.io/hashicorp/aws&quot;] (close) -->
<g id="node9" class="node">
<title>[root] provider[&quot;registry.terraform.io/hashicorp/aws&quot;] (close)</title>
<ellipse fill="none" stroke="black" cx="441.77" cy="-378" rx="227.46" ry="18"/>
<text text-anchor="middle" x="441.77" y="-374.3" font-family="Times,serif" font-size="14.00">[root] provider[&quot;registry.terraform.io/hashicorp/aws&quot;] (close)</text>
</g>
<!-- [root] provider[&quot;registry.terraform.io/hashicorp/aws&quot;] (close)&#45;&gt;[root] aws_instance.my_server_2 (expand) -->
<g id="edge9" class="edge">
<title>[root] provider[&quot;registry.terraform.io/hashicorp/aws&quot;] (close)&#45;&gt;[root] aws_instance.my_server_2 (expand)</title>
<path fill="none" stroke="black" d="M435.34,-359.7C432.41,-351.81 428.88,-342.3 425.63,-333.55"/>
<polygon fill="black" stroke="black" points="428.88,-332.26 422.12,-324.1 422.32,-334.7 428.88,-332.26"/>
</g>
<!-- [root] root -->
<g id="node10" class="node">
<title>[root] root</title>
<ellipse fill="none" stroke="black" cx="313.77" cy="-450" rx="47.39" ry="18"/>
<text text-anchor="middle" x="313.77" y="-446.3" font-family="Times,serif" font-size="14.00">[root] root</text>
</g>
<!-- [root] root&#45;&gt;[root] output.public_ip -->
<g id="edge10" class="edge">
<title>[root] root&#45;&gt;[root] output.public_ip</title>
<path fill="none" stroke="black" d="M273.38,-440.46C249.25,-433.06 220.52,-419.66 205.77,-396 193.4,-376.15 204.7,-350.84 217.16,-332.28"/>
<polygon fill="black" stroke="black" points="220.1,-334.19 223.08,-324.03 214.41,-330.12 220.1,-334.19"/>
</g>
<!-- [root] root&#45;&gt;[root] provider[&quot;registry.terraform.io/hashicorp/aws&quot;] (close) -->
<g id="edge11" class="edge">
<title>[root] root&#45;&gt;[root] provider[&quot;registry.terraform.io/hashicorp/aws&quot;] (close)</title>
<path fill="none" stroke="black" d="M339.67,-434.83C357.54,-425.06 381.63,-411.89 401.92,-400.79"/>
<polygon fill="black" stroke="black" points="403.85,-403.73 410.94,-395.86 400.49,-397.59 403.85,-403.73"/>
</g>
</g>
</svg>
