<svg width="377" height="269" viewBox="0 0 377 269" fill="none" xmlns="http://www.w3.org/2000/svg">
<rect x="0.461182" y="0.137695" width="376" height="268" fill="#F7F7F9"/>
<path d="M135.15 159.019C134.451 159.019 134.148 158.576 134.078 158.017H134.008C133.751 158.763 133.075 159.182 132.213 159.182C130.907 159.182 130.138 158.46 130.138 157.317C130.138 156.175 130.977 155.499 132.772 155.499H134.008V154.893C134.008 154.007 133.518 153.541 132.539 153.541C131.56 153.541 131.304 153.89 130.954 154.473L130.371 153.937C130.697 153.284 131.443 152.725 132.562 152.725C133.681 152.725 134.94 153.517 134.94 154.823V158.227H135.64V159.066H135.104L135.15 159.019ZM134.031 157.224V156.198H132.749C131.653 156.198 131.164 156.525 131.164 157.131V157.387C131.164 157.993 131.653 158.343 132.399 158.343C133.145 158.343 134.031 157.854 134.031 157.224Z" fill="black"/>
<path d="M137.132 159.019V152.817H138.088V153.82H138.134C138.437 153.121 138.974 152.654 139.883 152.654C140.792 152.654 141.958 153.517 141.958 155.032V159.019H141.002V155.219C141.002 154.123 140.512 153.54 139.603 153.54C138.694 153.54 138.088 153.937 138.088 154.729V159.042H137.132V159.019Z" fill="black"/>
<path d="M146.131 159.019V158.179H147.32V151.465H146.131V150.626H149.488V151.465H148.299V158.179H149.488V159.019H146.131Z" fill="black"/>
<path d="M151.399 150.626H154.85C156.225 150.626 157.088 151.489 157.088 152.794C157.088 154.1 156.272 154.496 155.736 154.566V154.636C156.342 154.682 157.391 155.195 157.391 156.594C157.391 157.993 156.458 159.019 155.223 159.019H151.399V150.626ZM152.402 154.263H154.733C155.526 154.263 156.015 153.843 156.015 153.097V152.678C156.015 151.932 155.526 151.512 154.733 151.512H152.402V154.263ZM152.402 158.133H154.896C155.759 158.133 156.295 157.667 156.295 156.827V156.408C156.295 155.568 155.759 155.102 154.896 155.102H152.402V158.11V158.133Z" fill="black"/>
<path d="M159.326 150.626H160.678L163.079 155.149H163.149L165.574 150.626H166.88V159.019H165.9V151.955H165.83L165.131 153.354L163.126 157.014L161.121 153.354L160.422 151.955H160.352V159.019H159.373V150.626H159.326Z" fill="black"/>
<path d="M171.146 154.869C171.146 152.072 172.405 150.486 174.526 150.486C176.648 150.486 176.881 151.162 177.417 152.328L176.601 152.818C176.275 151.955 175.575 151.396 174.526 151.396C173.477 151.396 172.218 152.538 172.218 154.263V155.522C172.218 157.247 173.081 158.296 174.526 158.296C175.972 158.296 176.321 157.69 176.671 156.781L177.487 157.294C176.951 158.483 175.925 159.205 174.549 159.205C172.428 159.205 171.169 157.713 171.169 154.916L171.146 154.869Z" fill="black"/>
<path d="M178.536 155.918C178.536 153.937 179.678 152.678 181.334 152.678C182.989 152.678 184.131 153.96 184.131 155.918C184.131 157.877 182.989 159.159 181.334 159.159C179.678 159.159 178.536 157.877 178.536 155.918ZM183.105 156.361V155.475C183.105 154.17 182.383 153.517 181.334 153.517C180.285 153.517 179.562 154.146 179.562 155.475V156.361C179.562 157.667 180.285 158.32 181.334 158.32C182.383 158.32 183.105 157.69 183.105 156.361Z" fill="black"/>
<path d="M185.786 159.019V152.817H186.742V153.82H186.789C187.069 153.191 187.488 152.654 188.468 152.654C189.447 152.654 190.029 153.027 190.356 153.913H190.379C190.612 153.237 191.218 152.654 192.268 152.654C193.317 152.654 194.296 153.517 194.296 155.032V159.019H193.34V155.219C193.34 154.123 192.92 153.54 191.988 153.54C191.055 153.54 190.542 153.937 190.542 154.729V159.042H189.587V155.242C189.587 154.146 189.167 153.564 188.258 153.564C187.348 153.564 186.789 153.96 186.789 154.752V159.065H185.833L185.786 159.019Z" fill="black"/>
<path d="M196.347 152.817H197.303V153.82H197.35C197.676 153.027 198.306 152.654 199.168 152.654C200.73 152.654 201.686 153.913 201.686 155.895C201.686 157.876 200.707 159.135 199.168 159.135C197.63 159.135 197.723 158.739 197.35 157.97H197.303V161.373H196.347V152.771V152.817ZM200.66 156.454V155.405C200.66 154.31 199.984 153.564 198.912 153.564C197.839 153.564 197.303 154.076 197.303 154.752V157.06C197.303 157.876 198.026 158.319 198.912 158.319C199.798 158.319 200.66 157.573 200.66 156.478V156.454Z" fill="black"/>
<path d="M207.887 159.019C207.188 159.019 206.885 158.576 206.815 158.017H206.745C206.489 158.763 205.813 159.182 204.95 159.182C203.644 159.182 202.875 158.46 202.875 157.317C202.875 156.175 203.714 155.499 205.509 155.499H206.745V154.893C206.745 154.007 206.255 153.541 205.276 153.541C204.297 153.541 204.041 153.89 203.691 154.473L203.108 153.937C203.435 153.284 204.181 152.725 205.3 152.725C206.419 152.725 207.678 153.517 207.678 154.823V158.227H208.377V159.066H207.841L207.887 159.019ZM206.745 157.224V156.198H205.463C204.367 156.198 203.878 156.525 203.878 157.131V157.387C203.878 157.993 204.367 158.343 205.113 158.343C205.859 158.343 206.745 157.854 206.745 157.224Z" fill="black"/>
<path d="M209.846 159.019V152.817H210.802V153.82H210.848C211.151 153.121 211.687 152.654 212.597 152.654C213.506 152.654 214.672 153.517 214.672 155.032V159.019H213.716V155.219C213.716 154.123 213.226 153.54 212.317 153.54C211.408 153.54 210.802 153.937 210.802 154.729V159.042H209.846V159.019Z" fill="black"/>
<path d="M220.477 152.817H221.432L218.658 160.464C218.378 161.21 218.122 161.42 217.213 161.42H216.723V160.581H217.702L218.169 159.252L215.837 152.817H216.793L218.285 157.037L218.565 158.04H218.635L218.961 157.037L220.453 152.817H220.477Z" fill="black"/>
<path d="M130.278 117.055H135.057V127.336H146.014V117.055H150.84V142.233H146.014V131.649H135.057V142.233H130.278V117.055Z" fill="black"/>
<path d="M153.917 137.361C153.917 133.584 156.575 132.325 159.816 131.556L165.294 130.297V129.854C165.294 128.013 164.105 126.87 162.194 126.87C160.282 126.87 159.163 127.919 158.813 129.644L154.71 129.178C155.316 125.728 158.23 123.49 162.38 123.49C166.53 123.49 169.934 126.381 169.934 130.577V137.944C169.934 138.41 170.073 138.55 170.4 138.55H171.402V142.21H168.605C166.833 142.21 166.04 141.627 166.04 140.205C166.04 138.783 166.11 139.273 166.297 138.62L165.9 138.48C164.595 141.278 162.706 142.513 160.002 142.513C157.298 142.513 153.917 140.462 153.917 137.338V137.361ZM161.238 139.156C163.616 139.156 165.294 137.431 165.294 134.703V133.258L161.378 134.191C159.396 134.657 158.58 135.333 158.58 136.848C158.58 138.364 159.629 139.156 161.238 139.156Z" fill="black"/>
<path d="M173.104 137.268L177.487 136.405C177.953 138.34 179.492 139.319 181.543 139.319C183.595 139.319 184.737 138.48 184.737 137.081C184.737 135.682 183.362 135.379 180.774 134.913C177.51 134.4 173.267 133.794 173.267 129.271C173.267 124.749 176.181 123.466 180.937 123.466C185.693 123.466 188.421 125.238 189.167 128.782L184.737 129.504C184.341 127.709 182.872 126.777 180.914 126.777C178.956 126.777 177.79 127.686 177.79 128.898C177.79 130.111 179.189 130.6 181.777 131.066C185.017 131.579 189.26 132.185 189.26 136.708C189.26 141.231 186.369 142.653 181.52 142.653C176.671 142.653 173.85 140.858 173.057 137.244L173.104 137.268Z" fill="black"/>
<path d="M196.814 142.256H192.128V116.355H196.814V124.422C196.814 125.354 196.627 126.264 196.371 127.592L196.814 127.732C197.933 125.075 199.611 123.513 202.758 123.513C205.906 123.513 208.867 126.03 208.867 130.32V142.256H204.181V130.46C204.181 128.362 203.132 127.219 201.057 127.219C198.982 127.219 196.814 129.015 196.814 132.185V142.256Z" fill="black"/>
<path d="M218.472 137.594C218.472 138.317 218.728 138.527 219.264 138.527H221.316V142.233H217.073C214.951 142.233 213.809 141.044 213.809 138.853V127.639H211.221V123.933H218.495V137.594H218.472ZM213.156 119.037C213.156 117.452 214.462 116.146 216 116.146C217.539 116.146 218.845 117.452 218.845 119.037C218.845 120.622 217.586 121.881 216 121.881C214.415 121.881 213.156 120.622 213.156 119.037Z" fill="black"/>
<path d="M222.854 129.668C222.854 122.114 227.82 116.659 235.001 116.659C242.181 116.659 245.189 120.156 246.284 124.889L241.528 126.031C240.619 122.721 238.428 120.856 234.977 120.856C231.527 120.856 227.82 124.492 227.82 129.668C227.82 134.843 230.711 138.48 235.164 138.48C239.617 138.48 240.852 136.569 241.761 133.048L246.261 133.561C245.189 139.203 241.015 142.7 235.117 142.7C229.219 142.7 222.854 137.221 222.854 129.691V129.668Z" fill="black"/>
<path d="M248.219 133.072C248.219 127.5 252.136 123.513 257.568 123.513C263 123.513 266.916 127.5 266.916 133.072C266.916 138.643 263 142.677 257.568 142.677C252.136 142.677 248.219 138.643 248.219 133.072ZM262.254 133.072C262.254 129.621 260.412 127.313 257.568 127.313C254.724 127.313 252.882 129.621 252.882 133.072C252.882 136.522 254.747 138.877 257.568 138.877C260.389 138.877 262.254 136.569 262.254 133.072Z" fill="black"/>
<path d="M269.877 123.933H274.19V124.655C274.19 125.634 274.144 126.427 273.864 127.896L274.307 128.012C274.983 125.611 276.242 123.956 279.202 123.956H280.531V128.502H278.62C275.985 128.502 274.563 130.087 274.563 133.001V142.28H269.877V123.979V123.933Z" fill="black"/>
<path d="M282.723 123.932H287.339V124.772C287.339 125.611 287.269 126.24 287.012 127.733L287.455 127.849C288.574 124.935 290.649 123.536 293.354 123.536C297.806 123.536 301.35 127.196 301.35 133.095C301.35 138.993 297.83 142.7 293.354 142.7C288.877 142.7 288.668 141.301 287.525 138.34L287.129 138.48C287.339 139.925 287.409 140.601 287.409 141.394V149.624H282.723V123.932ZM296.687 133.071C296.687 129.504 294.752 127.313 292.001 127.313C289.25 127.313 287.315 129.504 287.315 133.071C287.315 136.638 289.25 138.876 292.001 138.876C294.752 138.876 296.687 136.685 296.687 133.071Z" fill="black"/>
<path d="M92.3006 106.075L73.65 116.845V142.676L80.644 146.71V120.879L92.3006 114.164V106.075Z" fill="black"/>
<path d="M99.7374 106.075V126.66H92.3005V118.967L85.2833 123.023V149.391L92.3005 153.424V132.908H99.7374V140.555L106.755 136.498V110.131L99.7374 106.075Z" fill="black"/>
<path d="M99.7375 153.447L118.388 142.677V116.846L111.371 112.812V138.644L99.7375 145.358V153.447Z" fill="black"/>
</svg>
